<?xml version="1.0" standalone="no"?><!DOCTYPE svg PUBLIC "-//W3C//DTD SVG 1.1//EN" "http://www.w3.org/Graphics/SVG/1.1/DTD/svg11.dtd"><svg t="1747750992336" class="icon" viewBox="0 0 1024 1024" version="1.1" xmlns="http://www.w3.org/2000/svg" p-id="5326" xmlns:xlink="http://www.w3.org/1999/xlink" width="200" height="200"><path d="M512 512m-448.51 0a448.51 448.51 0 1 0 897.02 0 448.51 448.51 0 1 0-897.02 0Z" fill="#34C77A" p-id="5327"></path><path d="M472.87 682.19h-0.66a42.126 42.126 0 0 1-30.51-13.82L312.64 525.78c-15.6-17.23-14.26-43.82 2.94-59.4 17.23-15.6 43.82-14.21 59.4 2.94l98.84 109.21L673.96 370.7c16.06-16.81 42.78-17.25 59.42-1.12 16.74 16.11 17.23 42.73 1.12 59.47L503.17 669.3a41.98 41.98 0 0 1-30.3 12.89z" fill="#FFFFFF" p-id="5328"></path></svg>